Patient4_TMGait_0pt5_02_right_10_EMG.mot
version=1
nRows=23
nColumns=33
inDegrees=no
endheader
time	1LAddLong	2LGlutMax	3LGlutMed	4LIliopsoas	5LSemiMemb	6LBicFemLong	7LRecFem	8LVastMed	9LVastLat	10LGasMed	11LTibAnt	12lTibPost	13LPeroneusLong	14LSol	15LExtDigLong	16LFlexDigLong	17RAddLong	18RGlutMax	19RGlutMed	20RIliopsoas	21RSemiMemb	22RBicFemLong	23RRecFem	24RVastMed	25RVastLat	26RGasMed	27RTibAnt	28RTibPost	29RPeroneusLong	30RSol	31RExtDigLong	32RFlexDigLong
14.478	0	0.043488	0.04425	-0.010986	0.020447	-0.045166	0.037231	0.005646	-0.03418	0.13153	0.03418	-0.029297	0.21729	0.070038	-0.079956	0.030823	-0.007477	-0.08255	0.040283	-0.066376	-0.006409	-0.00412	0.010681	-0.059967	0.011902	-0.023346	0.013733	-0.007629	0.098724	-0.019989	-0.003052	-0.000763
14.479	0.00885	0.056458	0.006409	-0.008087	0.01709	-0.06897	0.05127	0.005646	0.022278	0.26825	-0.019226	0.034943	0.2121	0.28503	-0.070496	0.017548	0.00824	-0.10895	-0.11887	0.13992	-0.034027	-0.003052	0.035095	-0.062714	0.008087	-0.021973	-0.024414	-0.005951	0.11856	0.016174	-0.002899	-0.006409
14.48	0.003967	0.043945	-0.054321	0.002441	-0.000916	-0.061646	0.13626	0.006409	0.063934	0.39414	-0.030518	0.011444	0.20645	0.003815	-0.071259	-0.00824	0.005951	-0.1416	-0.36545	0.31036	-0.050507	-0.02182	0.044403	-0.068665	0.013733	-0.028534	-0.002747	-0.006561	0.014954	-0.000458	-0.001526	-0.010529
14.481	0.004883	0.065002	-0.083466	0.018616	-0.019531	-0.035248	0.16678	-0.00061	0.060272	0.33661	0.011902	-0.005493	0.12787	-0.059204	-0.06485	-0.033112	0.021973	-0.067596	-0.47882	0.29602	-0.058899	-0.035706	0.034943	-0.081329	0.009918	-0.018616	-0.000916	-0.007324	0.010223	-0.007477	-0.001068	-0.002441
14.482	0.008545	0.070648	0.052795	0.007782	-0.016479	-0.026703	0.13718	-0.00351	0.054474	0.13443	0.023193	-0.00824	0.071564	0.17136	-0.050049	-0.023193	0.010071	-0.13489	-0.27206	0.23972	-0.027466	-0.010376	0.046844	-0.024109	0.019379	-0.025787	0.012817	-0.005646	-0.015106	-0.026855	-0.001831	-0.011902
14.483	0.001526	-0.006866	0.1149	0.009308	-0.007019	-0.02243	0.13657	0.005798	0.005951	0.02655	0.013428	-0.002899	0.048065	0.20889	-0.04715	-0.016327	0.011139	-0.094604	-0.062103	0.24612	0.072937	-0.030365	0.055847	-0.071411	0.000458	-0.003357	0.02182	-0.005798	-0.009918	-0.029449	-0.006866	-0.009155
14.484	0.013428	0.009613	0.020599	0.006409	-0.000153	-0.023346	0.11368	0.008087	0.020447	0.016785	0.018616	0.005188	0.028992	0.22553	-0.037231	-0.009918	0.024719	-0.073547	0.046387	0.13733	0.008545	-0.057678	0.065308	-0.063934	0.029297	-0.029297	0.030975	-0.008545	-0.001068	-0.002289	-0.001221	-0.011139
14.485	0.00473	0.033112	0.066223	0.022125	0.003204	-0.001221	0.06958	0.006104	0.055084	-0.00946	0.011444	0.014954	0.021362	0.13428	-0.029602	-0.020905	0.014343	-0.081177	0.45853	0.004578	-0.18539	-0.04776	0.034485	-0.031891	0.018616	-0.02243	0.061951	-0.009918	-0.090027	0.006256	-0.002136	-0.012817
14.486	0.006866	-0.016785	0.004578	-0.008698	-0.006561	0	0.045013	0.001068	0.072479	-0.032806	0.004425	0.015564	0.022583	0.037231	-0.001984	-0.014801	0.028381	-0.09613	0.58319	-0.001984	-0.32272	-0.031891	0.042725	-0.063782	0.012207	-0.025482	0.04715	-0.009766	-0.023651	0.028534	-0.00061	-0.012817
14.487	-0.00946	-0.008087	0.001984	-0.001221	-0.005493	-0.018005	0.000153	0.011597	0.089722	0.000458	0.010071	0.010986	0.013885	0.082855	-0.002136	-0.023041	0.028229	-0.09201	0.35248	0.002441	-0.17456	-0.032196	0.006714	-0.054169	0.001984	-0.014038	0.03418	-0.010834	0.11002	0.036621	-0.007324	-0.009918
14.488	0.005035	0.017853	-0.014648	0.005035	-0.011902	-0.002899	-0.031281	0.017853	0.1471	-0.00412	0.011139	0.005188	0.007019	0.075989	0.008087	-0.030975	0.014038	-0.094757	0.15015	-0.024109	-0.002747	0.00885	0.023346	-0.066681	0.02533	-0.02594	0.017395	-0.010529	0.25299	0.050659	-0.002289	-0.011902
14.489	0.008392	0.021667	-0.010681	0.005646	-0.013275	-0.005341	0.044098	0.013428	0.058594	-0.015564	0.008392	0.023499	0.00885	0.057068	0.01358	-0.017242	0.023041	-0.18173	0.20325	-0.07782	0.080414	0.059814	0.025787	-0.081177	0.029907	-0.026245	0.007782	-0.011139	0.39887	0.044708	-0.002594	-0.00946
14.49	0.004578	0.008087	0.020142	0.016937	-0.006104	-0.02121	0.054321	0.015564	-0.058594	-0.045471	-0.002594	0.01297	0.014954	-0.021973	0.025787	0.001068	0.001526	-0.16769	0.093994	-0.040894	0.26413	0.075531	0.00351	-0.11002	0.030823	-0.024719	0.014038	-0.010986	0.29724	0.046082	0.001221	-0.000763
14.491	-0.001526	-0.018158	0.013885	0	-0.016785	-0.017242	0.022278	0.01297	-0.078735	-0.070343	0.002441	0.016327	0.009003	-0.067902	0.020905	0.008545	0.013123	-0.11292	-0.13062	0.008698	0.18875	0.02533	-0.012512	-0.10712	0.017242	-0.023041	0.036469	-0.008545	0.14587	0.034943	-0.006561	-0.003815
14.492	0.009155	-0.006866	0.039215	0.005188	-0.001068	-0.029144	0.021973	0.005035	0.000458	-0.066376	0.007172	0.011444	0.013275	-0.02533	0.033875	0.005188	0.001068	-0.14465	-0.21072	0.045319	0.081024	-0.018005	0.011292	-0.13748	0.028687	-0.016174	0.047607	-0.009918	-0.052185	0.020294	-0.00061	-0.005341
14.493	0.00473	-0.014648	0.012207	0.00824	-0.013733	-0.020447	0.041046	-0.014496	0.058746	-0.063934	0.005493	0.011597	-0.005341	0.060577	0.027618	0.019531	-0.010071	-0.13443	-0.1738	-0.001678	-0.007172	-0.01297	0.023041	-0.16007	0.009155	-0.011749	0.038147	-0.008698	-0.32654	0.005035	-0.002747	0.003357
14.494	0.000763	0.012207	0.062866	0.015259	-0.012054	-0.013123	0.093994	-0.015411	0.085754	-0.065308	0.008545	0.019684	-0.013428	0.16052	0.023651	0.016632	-0.019531	-0.084381	0.002136	-0.067596	-0.087433	0.061188	0.013275	-0.07431	0.020599	-0.012207	0.052032	-0.008087	-0.68695	0.006561	-0.003052	-0.001526
14.495	-0.003967	0.00412	-0.000153	0.007629	-0.004883	-0.007324	0.079498	-0.008698	0.09964	-0.032806	0.009918	0.018158	-0.045624	0.16342	0.019531	0.022736	-0.02533	-0.040741	0.23468	-0.054474	-0.027924	0.020142	0.007629	0.006256	0.030518	-0.014648	0.00351	-0.00824	0.55679	0.020142	-0.000458	-0.00473
14.496	-0.000153	-0.007172	0.045929	0.006714	-0.000916	-0.003357	0.055237	0.001831	0.13412	-0.05249	0.010071	0.027618	-0.072784	0.19409	0.005035	0.006561	-0.002747	-0.10086	0.14313	-0.05249	-0.086365	0.011749	0.032043	-0.033875	0.000763	-0.010376	-0.010529	-0.010681	1.0442	0.040894	-0.002899	-0.009918
14.497	-0.005188	-0.00351	-0.004578	-0.001373	0.008392	0.024414	0.06546	0.001068	0.1001	-0.069122	-0.031281	-0.055847	-0.11139	0.2504	-0.000153	0.015259	0.029144	-0.1593	-0.05722	0.017242	-0.17029	-0.033722	0.055084	-0.076447	-0.009308	-0.012054	0.032349	-0.010681	0.36591	0.061188	-0.000305	-0.010071
14.498	0.005798	-0.007935	-0.011292	-0.005493	0.001526	0.041962	0.10254	-0.003967	-0.074463	-0.094757	0.049133	0.27466	-0.12573	0.24994	0.008087	0.024261	0.029755	-0.19012	-0.25833	0.083771	-0.16953	-0.10788	0.014343	-0.099945	-0.011597	-0.011749	0.062714	-0.004425	-0.0177	0.075073	0.000305	-0.003967
14.499	0.010834	0.033875	0.093079	0.013885	-0.003967	0.036011	0.11765	-0.007477	-0.18539	-0.11841	-0.004425	-0.088806	-0.081024	0.19211	0.010071	0.017395	0.003662	-0.07782	-0.13886	0.031281	-0.11597	-0.12207	0.005341	-0.034485	0.028534	-0.005798	0.049744	-0.003204	-0.15701	0.058441	0.005188	-0.016174
14.5	-0.000763	0.011139	0.05722	0.019531	-0.008087	-0.005646	0.10132	-0.001068	-0.10422	-0.077057	0.002899	0.023804	0.006866	-0.09903	-0.011292	0.010986	-0.041962	-0.03479	-0.21118	-0.084229	0.12512	-0.095825	-0.025177	0.018921	0.035553	0.001068	0.061188	-0.005493	-0.22751	0.013733	-0.003662	-0.012665
